<?xml version="1.0" encoding="iso-8859-1"?>
<!-- Generator: Adobe Illustrator 16.0.0, SVG Export Plug-In . SVG Version: 6.00 Build 0)  -->
<!DOCTYPE svg PUBLIC "-//W3C//DTD SVG 1.1//EN" "http://www.w3.org/Graphics/SVG/1.1/DTD/svg11.dtd">
<svg version="1.1" id="Layer_1" xmlns="http://www.w3.org/2000/svg" xmlns:xlink="http://www.w3.org/1999/xlink" x="0px" y="0px"
	 width="573.902px" height="160.339px" viewBox="0 0 573.902 160.339" style="enable-background:new 0 0 573.902 160.339;"
	 xml:space="preserve">
<path id="RUTA" style="fill:#F25F5F;stroke:#F25F5F;stroke-miterlimit:10;" d="M137,141.979c0,9.604-7.893,18.359-18.246,18.359
	H19.246C8.893,160.339,0,151.584,0,141.979V17.218C0,10.19,8.892,0.339,19.246,0.339h99.508C129.107,0.339,137,7.614,137,17.218
	V141.979z"/>
<g id="TEXT">
	<g>
		<path style="fill:#FFFFFF;" d="M39.157,134.06c0.267,0.293,0.4,0.68,0.4,1.16c0,0.428-0.147,0.787-0.44,1.08
			c-0.294,0.293-0.654,0.439-1.08,0.439c-0.428,0-0.908-0.16-1.44-0.48l-28.72-16.238c-0.64-0.32-1.08-0.668-1.32-1.041
			c-0.24-0.373-0.36-0.852-0.36-1.439c0-0.533,0.16-0.986,0.48-1.359c0.32-0.373,0.827-0.748,1.52-1.121l28.08-15.92
			c0.426-0.266,0.853-0.4,1.28-0.4h0.16c0.48,0,0.866,0.148,1.16,0.441c0.292,0.293,0.44,0.627,0.44,1
			c0,0.854-0.427,1.492-1.28,1.92l-28.08,15.6l27.68,15.359C38.384,133.433,38.89,133.767,39.157,134.06z"/>
		<path style="fill:#FFFFFF;" d="M79.877,98.979c2.826,1.76,5.04,4.188,6.64,7.279c1.6,3.094,2.4,6.588,2.4,10.48
			c0,3.84-0.813,7.32-2.44,10.441c-1.627,3.119-3.854,5.572-6.68,7.359c-2.828,1.787-5.974,2.68-9.44,2.68
			c-3.2,0-6.134-0.801-8.8-2.4c-2.667-1.6-4.854-3.865-6.56-6.799v23.119c0,0.426-0.147,0.801-0.44,1.119
			c-0.293,0.32-0.68,0.48-1.16,0.48c-0.428,0-0.8-0.16-1.12-0.48c-0.32-0.318-0.48-0.693-0.48-1.119V97.94
			c0-0.428,0.146-0.801,0.44-1.121c0.292-0.32,0.68-0.48,1.16-0.48c0.48,0,0.866,0.16,1.16,0.48c0.292,0.32,0.44,0.693,0.44,1.121
			v7.359c1.6-3.041,3.732-5.293,6.4-6.76c2.666-1.467,5.652-2.201,8.96-2.201C73.877,96.339,77.049,97.22,79.877,98.979z
			 M78.117,131.94c2.346-1.494,4.2-3.572,5.56-6.24c1.36-2.666,2.04-5.652,2.04-8.961c0-3.307-0.68-6.279-2.04-8.92
			c-1.36-2.639-3.214-4.705-5.56-6.199c-2.348-1.492-4.987-2.24-7.92-2.24c-2.987,0-5.667,0.734-8.04,2.199
			c-2.374,1.469-4.214,3.521-5.52,6.16c-1.308,2.641-1.96,5.641-1.96,9c0,3.361,0.652,6.361,1.96,9
			c1.306,2.641,3.146,4.707,5.52,6.201c2.373,1.492,5.053,2.24,8.04,2.24C73.129,134.181,75.769,133.433,78.117,131.94z"/>
		<path style="fill:#FFFFFF;" d="M131.956,116.339c0.32,0.375,0.48,0.828,0.48,1.361c0,0.588-0.12,1.066-0.36,1.439
			c-0.24,0.373-0.68,0.721-1.32,1.041l-29.44,16.078c-0.534,0.32-1.014,0.48-1.44,0.48c-0.428,0-0.788-0.146-1.08-0.439
			c-0.294-0.293-0.44-0.652-0.44-1.08c0-0.48,0.132-0.867,0.4-1.16c0.266-0.293,0.772-0.627,1.52-1l28.4-15.199l-28.8-15.76
			c-0.854-0.428-1.28-1.066-1.28-1.92c0-0.428,0.173-0.787,0.52-1.08c0.346-0.293,0.76-0.414,1.24-0.361
			c0.426,0,0.853,0.135,1.28,0.4l28.8,16.08C131.128,115.593,131.635,115.968,131.956,116.339z"/>
	</g>
	<g>
		<path d="M192.099,50.297c0.27,0.296,0.404,0.632,0.404,1.007c0,0.376-0.108,0.699-0.323,0.967
			c-1.78,2.363-3.992,4.296-6.635,5.799c-2.644,1.502-5.475,2.255-8.496,2.255c-4.045,0-7.633-0.858-10.761-2.577
			c-3.129-1.718-5.57-4.16-7.322-7.329c-1.753-3.167-2.629-6.846-2.629-11.034c0-4.295,0.85-8.067,2.548-11.316
			c1.699-3.248,3.951-5.731,6.756-7.45c2.804-1.718,5.798-2.577,8.981-2.577c3.182,0,6.136,0.685,8.859,2.054
			s4.948,3.423,6.675,6.162c1.727,2.738,2.643,6.121,2.751,10.148c0,0.43-0.161,0.819-0.485,1.168
			c-0.323,0.35-0.701,0.523-1.133,0.523h-31.797v1.047c0,3.33,0.674,6.376,2.023,9.142c1.348,2.766,3.344,4.953,5.987,6.564
			c2.642,1.611,5.825,2.416,9.547,2.416c2.589,0,5.029-0.63,7.323-1.893c2.292-1.261,4.086-2.859,5.38-4.792
			c0.377-0.483,0.836-0.725,1.376-0.725C191.504,49.854,191.828,50.003,192.099,50.297z M168.514,22.833
			c-2.077,1.047-3.912,2.605-5.502,4.671c-1.592,2.068-2.657,4.578-3.196,7.531h29.775V34.31c-0.271-2.738-1.147-5.086-2.63-7.047
			c-1.484-1.959-3.317-3.449-5.502-4.47c-2.185-1.02-4.464-1.53-6.837-1.53C172.626,21.263,170.589,21.786,168.514,22.833z"/>
		<path d="M248.087,20.739c2.858,1.799,5.098,4.296,6.716,7.49c1.618,3.195,2.427,6.779,2.427,10.752
			c0,3.974-0.822,7.585-2.468,10.833c-1.646,3.249-3.897,5.812-6.756,7.691c-2.859,1.88-6.041,2.819-9.547,2.819
			c-3.184,0-6.122-0.845-8.819-2.537s-4.936-4.04-6.715-7.047v7.168c0,0.43-0.149,0.806-0.445,1.127
			c-0.297,0.322-0.688,0.483-1.173,0.483c-0.433,0-0.81-0.161-1.133-0.483c-0.324-0.322-0.485-0.697-0.485-1.127V1.61
			c0-0.429,0.147-0.805,0.444-1.127C220.429,0.161,220.821,0,221.307,0s0.876,0.161,1.173,0.483
			c0.296,0.322,0.445,0.699,0.445,1.127v26.256c1.618-3.167,3.788-5.597,6.513-7.289c2.724-1.691,5.73-2.537,9.021-2.537
			C242.019,18.041,245.228,18.941,248.087,20.739z M246.308,54.848c2.372-1.611,4.247-3.798,5.623-6.564
			c1.375-2.765,2.062-5.866,2.062-9.303c0-3.436-0.688-6.51-2.062-9.222c-1.376-2.711-3.251-4.833-5.623-6.363
			c-2.375-1.53-5.045-2.295-8.011-2.295c-3.021,0-5.731,0.765-8.131,2.295c-2.401,1.53-4.262,3.652-5.583,6.363
			c-1.322,2.712-1.982,5.786-1.982,9.222c0,3.437,0.674,6.552,2.023,9.343c1.348,2.792,3.208,4.981,5.582,6.564
			c2.373,1.584,5.069,2.376,8.091,2.376C241.263,57.264,243.933,56.459,246.308,54.848z"/>
		<path d="M318.274,19.813c0.296,0.322,0.445,0.698,0.445,1.127v36.968c0,0.43-0.162,0.806-0.485,1.127
			c-0.324,0.322-0.702,0.483-1.133,0.483c-0.485,0-0.878-0.161-1.174-0.483c-0.297-0.322-0.444-0.697-0.444-1.127V50.66
			c-1.35,2.738-3.427,5.034-6.23,6.886c-2.806,1.853-5.906,2.778-9.305,2.778c-3.56,0-6.77-0.926-9.628-2.778
			c-2.859-1.853-5.098-4.402-6.716-7.651c-1.618-3.248-2.427-6.886-2.427-10.914c0-3.973,0.821-7.557,2.468-10.752
			c1.645-3.194,3.896-5.691,6.756-7.49c2.858-1.798,6.04-2.698,9.547-2.698c3.506,0,6.661,0.914,9.467,2.738
			c2.804,1.826,4.826,4.269,6.068,7.329V20.94c0-0.429,0.147-0.806,0.444-1.127c0.296-0.322,0.688-0.483,1.174-0.483
			S317.978,19.491,318.274,19.813z M308.161,54.888c2.399-1.583,4.273-3.771,5.623-6.564c1.348-2.791,2.022-5.906,2.022-9.343
			c0-3.274-0.675-6.282-2.022-9.021c-1.35-2.738-3.224-4.899-5.623-6.483c-2.401-1.583-5.085-2.376-8.051-2.376
			c-2.967,0-5.651,0.765-8.051,2.295c-2.4,1.53-4.275,3.652-5.623,6.363c-1.349,2.712-2.022,5.786-2.022,9.222
			c0,3.437,0.674,6.552,2.022,9.343c1.348,2.792,3.209,4.981,5.583,6.564c2.373,1.584,5.069,2.376,8.091,2.376
			C303.076,57.264,305.76,56.473,308.161,54.888z"/>
		<path d="M345.499,51.546c0-0.375,0.215-0.725,0.647-1.047c0.269-0.268,0.593-0.403,0.971-0.403c0.538,0,0.971,0.215,1.294,0.645
			c3.128,4.458,7.497,6.685,13.107,6.685c2.858,0,5.367-0.711,7.524-2.134c2.157-1.422,3.236-3.342,3.236-5.759
			c0-2.469-0.944-4.321-2.831-5.557c-1.889-1.234-4.479-2.255-7.768-3.061c-4.369-1.073-7.808-2.509-10.315-4.309
			c-2.509-1.798-3.763-4.335-3.763-7.611c0-3.167,1.267-5.785,3.803-7.853c2.535-2.066,5.798-3.101,9.79-3.101
			c2.211,0,4.409,0.43,6.594,1.289c2.185,0.859,4.167,2.229,5.947,4.107c0.377,0.322,0.566,0.699,0.566,1.128
			c0,0.483-0.189,0.914-0.566,1.289c-0.433,0.215-0.783,0.322-1.052,0.322c-0.378,0-0.702-0.161-0.971-0.483
			c-2.806-3.061-6.42-4.591-10.843-4.591c-2.859,0-5.272,0.698-7.241,2.094c-1.97,1.396-2.953,3.33-2.953,5.799
			c0.162,2.309,1.227,4.095,3.196,5.356c1.969,1.262,4.867,2.376,8.697,3.342c2.751,0.699,5.029,1.464,6.837,2.295
			c1.807,0.833,3.249,2.001,4.329,3.503c1.078,1.504,1.618,3.463,1.618,5.88c0,3.382-1.309,6.054-3.924,8.014
			c-2.617,1.96-6.028,2.939-10.235,2.939c-6.149,0-11.193-2.416-15.13-7.249C345.688,52.486,345.499,51.977,345.499,51.546z"/>
		<path d="M418.236,19.491c0.323,0.322,0.485,0.672,0.485,1.047c0,0.431-0.149,0.793-0.445,1.087
			c-0.297,0.296-0.661,0.443-1.092,0.443h-8.9v28.673c0,2.363,0.417,3.934,1.254,4.711c0.836,0.779,1.901,1.168,3.196,1.168
			c0.215,0,0.526-0.053,0.931-0.161c0.404-0.107,0.74-0.161,1.011-0.161c0.377,0,0.701,0.148,0.972,0.443
			c0.269,0.296,0.404,0.632,0.404,1.007c0,0.483-0.323,0.9-0.971,1.249c-0.647,0.35-1.403,0.523-2.266,0.523
			c-1.349,0-2.481-0.093-3.398-0.282c-0.918-0.188-1.875-0.913-2.872-2.175c-0.999-1.261-1.497-3.315-1.497-6.161V22.068h-6.635
			c-0.378,0-0.728-0.161-1.052-0.483c-0.323-0.322-0.485-0.671-0.485-1.047c0-0.429,0.148-0.792,0.445-1.087
			c0.296-0.294,0.66-0.443,1.092-0.443h6.635V8.779c0-0.429,0.162-0.806,0.485-1.127c0.324-0.322,0.701-0.483,1.133-0.483
			c0.485,0,0.876,0.161,1.174,0.483c0.296,0.322,0.444,0.698,0.444,1.127v10.229h8.9C417.562,19.007,417.913,19.168,418.236,19.491z
			"/>
		<path d="M446.635,59.036c-0.324,0.322-0.702,0.483-1.133,0.483c-0.485,0-0.878-0.161-1.174-0.483
			c-0.297-0.322-0.444-0.697-0.444-1.127V19.652c0-0.429,0.161-0.806,0.485-1.127c0.323-0.322,0.7-0.483,1.133-0.483
			c0.485,0,0.876,0.161,1.173,0.483c0.296,0.322,0.445,0.698,0.445,1.127v38.257C447.12,58.339,446.958,58.714,446.635,59.036z"/>
		<path d="M510.997,19.813c0.296,0.322,0.445,0.698,0.445,1.127v36.968c0,0.43-0.162,0.806-0.485,1.127
			c-0.324,0.322-0.702,0.483-1.133,0.483c-0.485,0-0.878-0.161-1.174-0.483c-0.297-0.322-0.444-0.697-0.444-1.127V50.66
			c-1.35,2.738-3.427,5.034-6.23,6.886c-2.806,1.853-5.906,2.778-9.305,2.778c-3.56,0-6.77-0.926-9.628-2.778
			c-2.859-1.853-5.098-4.402-6.716-7.651c-1.618-3.248-2.427-6.886-2.427-10.914c0-3.973,0.821-7.557,2.468-10.752
			c1.645-3.194,3.896-5.691,6.756-7.49c2.858-1.798,6.04-2.698,9.547-2.698c3.506,0,6.661,0.914,9.467,2.738
			c2.804,1.826,4.826,4.269,6.068,7.329V20.94c0-0.429,0.147-0.806,0.444-1.127c0.296-0.322,0.688-0.483,1.174-0.483
			S510.7,19.491,510.997,19.813z M500.884,54.888c2.399-1.583,4.273-3.771,5.623-6.564c1.348-2.791,2.022-5.906,2.022-9.343
			c0-3.274-0.675-6.282-2.022-9.021c-1.35-2.738-3.224-4.899-5.623-6.483c-2.401-1.583-5.085-2.376-8.051-2.376
			c-2.967,0-5.651,0.765-8.051,2.295c-2.4,1.53-4.275,3.652-5.623,6.363c-1.349,2.712-2.022,5.786-2.022,9.222
			c0,3.437,0.674,6.552,2.022,9.343c1.348,2.792,3.209,4.981,5.583,6.564c2.373,1.584,5.069,2.376,8.091,2.376
			C495.799,57.264,498.482,56.473,500.884,54.888z"/>
		<path d="M570.262,22.27c2.427,2.819,3.641,6.483,3.641,10.994v24.646c0,0.43-0.162,0.806-0.485,1.127
			c-0.323,0.322-0.702,0.483-1.133,0.483c-0.485,0-0.877-0.161-1.173-0.483c-0.298-0.322-0.445-0.697-0.445-1.127V33.585
			c0-3.651-0.958-6.645-2.872-8.98c-1.915-2.335-4.814-3.503-8.698-3.503c-2.374,0-4.706,0.564-6.998,1.691
			c-2.294,1.127-4.167,2.658-5.623,4.591c-1.457,1.933-2.185,4-2.185,6.202v24.323c0,0.43-0.162,0.806-0.485,1.127
			c-0.324,0.322-0.702,0.483-1.133,0.483c-0.485,0-0.878-0.161-1.174-0.483c-0.297-0.322-0.444-0.697-0.444-1.127V20.94
			c0-0.429,0.161-0.806,0.485-1.127c0.323-0.322,0.7-0.483,1.133-0.483c0.485,0,0.876,0.161,1.173,0.483
			c0.296,0.322,0.445,0.698,0.445,1.127v5.396c1.563-2.416,3.762-4.402,6.594-5.96c2.832-1.557,5.677-2.335,8.536-2.335
			C564.22,18.041,567.834,19.45,570.262,22.27z"/>
		<path d="M193.434,97.032c0.296,0.322,0.445,0.699,0.445,1.128v36.969c0,0.43-0.162,0.805-0.485,1.127
			c-0.324,0.322-0.702,0.483-1.133,0.483c-0.485,0-0.878-0.161-1.174-0.483c-0.297-0.322-0.444-0.697-0.444-1.127v-7.249
			c-1.35,2.738-3.427,5.033-6.23,6.886c-2.806,1.853-5.906,2.779-9.305,2.779c-3.56,0-6.77-0.927-9.628-2.779
			c-2.86-1.853-5.097-4.401-6.715-7.651c-1.618-3.248-2.427-6.886-2.427-10.913c0-3.973,0.822-7.557,2.468-10.752
			c1.645-3.194,3.896-5.69,6.756-7.49c2.858-1.799,6.04-2.698,9.547-2.698c3.506,0,6.661,0.913,9.467,2.738
			c2.804,1.826,4.826,4.269,6.068,7.329V98.16c0-0.429,0.147-0.806,0.444-1.128c0.296-0.322,0.688-0.482,1.174-0.482
			S193.137,96.71,193.434,97.032z M183.32,132.108c2.399-1.583,4.273-3.771,5.623-6.564c1.348-2.791,2.022-5.906,2.022-9.343
			c0-3.274-0.675-6.282-2.022-9.021c-1.35-2.738-3.224-4.899-5.623-6.483c-2.401-1.583-5.085-2.376-8.051-2.376
			c-2.967,0-5.651,0.765-8.05,2.295c-2.401,1.53-4.276,3.652-5.624,6.363c-1.349,2.712-2.022,5.786-2.022,9.222
			c0,3.437,0.674,6.552,2.022,9.343c1.348,2.793,3.208,4.981,5.583,6.564c2.373,1.584,5.069,2.376,8.091,2.376
			C178.235,134.484,180.919,133.692,183.32,132.108z"/>
		<path d="M222.439,136.256c-0.324,0.322-0.702,0.483-1.133,0.483c-0.485,0-0.878-0.161-1.173-0.483
			c-0.298-0.322-0.445-0.697-0.445-1.127V78.75c0-0.429,0.162-0.806,0.485-1.128s0.7-0.482,1.133-0.482
			c0.485,0,0.876,0.16,1.173,0.482c0.296,0.322,0.445,0.699,0.445,1.128v56.379C222.925,135.559,222.763,135.934,222.439,136.256z"
			/>
		<path d="M307.189,100.415c2.399,2.899,3.601,6.659,3.601,11.276v23.438c0,0.43-0.149,0.805-0.445,1.127
			c-0.297,0.322-0.688,0.483-1.173,0.483s-0.878-0.161-1.174-0.483c-0.297-0.322-0.444-0.697-0.444-1.127v-23.115
			c0-3.812-0.931-6.913-2.792-9.303c-1.86-2.389-4.68-3.584-8.455-3.584c-2.319,0-4.599,0.591-6.836,1.771
			c-2.239,1.182-4.06,2.752-5.462,4.712c-1.403,1.961-2.104,4.095-2.104,6.403v23.115c0,0.43-0.149,0.805-0.445,1.127
			c-0.297,0.322-0.688,0.483-1.173,0.483s-0.877-0.161-1.173-0.483c-0.298-0.322-0.445-0.697-0.445-1.127V111.61
			c0-3.705-0.89-6.711-2.67-9.021c-1.78-2.308-4.478-3.463-8.091-3.463c-2.266,0-4.478,0.563-6.635,1.691
			c-2.158,1.127-3.924,2.657-5.3,4.591c-1.375,1.933-2.062,4-2.062,6.201v23.519c0,0.43-0.162,0.805-0.485,1.127
			c-0.324,0.322-0.702,0.483-1.133,0.483c-0.485,0-0.878-0.161-1.174-0.483c-0.297-0.322-0.444-0.697-0.444-1.127V98.16
			c0-0.429,0.161-0.806,0.485-1.128c0.323-0.322,0.7-0.482,1.133-0.482c0.485,0,0.876,0.16,1.173,0.482
			c0.296,0.322,0.445,0.699,0.445,1.128v5.638c1.563-2.255,3.601-4.107,6.108-5.558c2.508-1.449,5.138-2.174,7.889-2.174
			c2.966,0,5.609,0.752,7.929,2.255c2.318,1.504,4.018,3.705,5.098,6.604c1.133-2.47,3.276-4.563,6.432-6.282
			c3.156-1.718,6.243-2.577,9.265-2.577C301.27,96.066,304.789,97.516,307.189,100.415z"/>
	</g>
	<g>
		<path style="fill:#FFFFFF;" d="M42.654,56.839c0.268,0.294,0.402,0.68,0.402,1.16c0,0.428-0.148,0.788-0.442,1.08
			c-0.295,0.293-0.657,0.44-1.085,0.44c-0.43,0-0.912-0.16-1.447-0.48l-28.851-16.24c-0.643-0.32-1.085-0.666-1.326-1.04
			c-0.241-0.373-0.361-0.853-0.361-1.44c0-0.532,0.161-0.986,0.482-1.36c0.321-0.373,0.83-0.746,1.527-1.12l28.208-15.92
			c0.428-0.266,0.856-0.4,1.286-0.4h0.161c0.482,0,0.87,0.147,1.165,0.44c0.294,0.294,0.442,0.627,0.442,1
			c0,0.854-0.429,1.494-1.286,1.92l-28.208,15.6l27.807,15.36C41.877,56.213,42.386,56.547,42.654,56.839z"/>
		<path style="fill:#FFFFFF;" d="M52.538,51.6c0-0.373,0.213-0.72,0.643-1.04c0.268-0.266,0.589-0.4,0.964-0.4
			c0.535,0,0.964,0.213,1.286,0.64c3.107,4.428,7.447,6.64,13.02,6.64c2.839,0,5.331-0.706,7.474-2.12
			c2.142-1.412,3.214-3.32,3.214-5.72c0-2.453-0.938-4.292-2.812-5.52c-1.876-1.226-4.448-2.24-7.715-3.04
			c-4.34-1.066-7.755-2.493-10.247-4.28c-2.491-1.787-3.737-4.307-3.737-7.56c0-3.146,1.258-5.747,3.777-7.8
			c2.518-2.052,5.759-3.08,9.724-3.08c2.196,0,4.38,0.428,6.55,1.28c2.17,0.854,4.139,2.214,5.907,4.08
			c0.374,0.32,0.562,0.693,0.562,1.12c0,0.48-0.188,0.908-0.562,1.28c-0.43,0.214-0.777,0.32-1.045,0.32
			c-0.375,0-0.697-0.16-0.964-0.48c-2.787-3.04-6.376-4.56-10.769-4.56c-2.84,0-5.237,0.694-7.193,2.08
			c-1.956,1.388-2.933,3.308-2.933,5.76c0.161,2.293,1.218,4.067,3.174,5.32c1.955,1.254,4.834,2.36,8.639,3.32
			c2.733,0.694,4.996,1.454,6.791,2.28c1.794,0.828,3.228,1.987,4.3,3.48c1.071,1.494,1.607,3.44,1.607,5.84
			c0,3.36-1.3,6.014-3.898,7.96c-2.599,1.948-5.987,2.92-10.167,2.92c-6.107,0-11.118-2.4-15.028-7.2
			C52.725,52.533,52.538,52.027,52.538,51.6z"/>
		<path style="fill:#FFFFFF;" d="M125.429,39.12c0.322,0.374,0.482,0.828,0.482,1.36c0,0.587-0.121,1.067-0.362,1.44
			c-0.241,0.374-0.683,0.72-1.326,1.04L94.649,59.04c-0.536,0.32-1.019,0.48-1.447,0.48c-0.429,0-0.791-0.146-1.085-0.44
			c-0.295-0.292-0.442-0.652-0.442-1.08c0-0.48,0.133-0.866,0.402-1.16c0.268-0.292,0.776-0.626,1.527-1l28.53-15.2l-28.932-15.76
			c-0.857-0.426-1.286-1.066-1.286-1.92c0-0.426,0.173-0.786,0.522-1.08c0.348-0.292,0.763-0.413,1.246-0.36
			c0.428,0,0.856,0.134,1.286,0.4L123.902,38C124.598,38.373,125.108,38.747,125.429,39.12z"/>
	</g>
	<path d="M443.359,12.543c-0.544-0.512-0.814-1.165-0.814-1.962V9.898c0-0.796,0.285-1.45,0.857-1.962
		c0.57-0.512,1.313-0.768,2.229-0.768c0.8,0,1.471,0.256,2.015,0.768c0.542,0.512,0.813,1.167,0.813,1.962v0.683
		c0,0.797-0.271,1.451-0.813,1.962c-0.544,0.513-1.243,0.769-2.101,0.769C444.631,13.312,443.902,13.056,443.359,12.543z"/>
</g>
</svg>
